#!OML:ASF F:\VICON\USERDATA\INSTALL\rory3\rory3.ASF
:FULLY-SPECIFIED
:DEGREES
137
root 1.19652 14.9061 -18.8397 16.852 0.823105 -0.627474
lowerback 27.3322 0.0891559 0.141448
upperback 2.49595 0.516542 2.64677
thorax -12.4603 0.317289 2.75301
lowerneck -26.3276 -5.84453 -8.95728
upperneck -0.776346 -5.68838 9.50629
head 4.33029 -2.19432 3.84863
rclavicle -7.55382e-015 1.27222e-014
rhumerus -22.1269 6.68098 -81.6419
rradius 80.9502
rwrist -2.93945
rhand -13.3072 17.795
rfingers 7.12502
rthumb 12.7971 -11.7928
lclavicle -7.55382e-015 1.27222e-014
lhumerus -23.1341 -4.43936 85.4357
lradius 76.6193
lwrist 3.1038
lhand -19.6717 22.8087
lfingers 7.12502
lthumb 6.65678 52.6841
rfemur -61.7447 -1.32159 24.1457
rtibia 78.4618
rfoot -25.4091 -13.1486
rtoes -4.22149
lfemur -63.1117 4.10526 -22.7803
ltibia 76.9335
lfoot -27.6104 0.767893
ltoes 0.5406
138
root 1.19655 14.8047 -18.8834 17.4855 0.830516 -0.515051
lowerback 27.6527 0.0995745 0.0389791
upperback 2.6144 0.497333 2.61683
thorax -12.4917 0.312435 2.78766
lowerneck -26.8621 -5.84429 -8.97372
upperneck -1.50791 -5.60947 9.71369
head 4.17261 -2.13311 3.93
rclavicle -5.1684e-015 3.97569e-016
rhumerus -21.4001 6.84187 -81.4983
rradius 81.5636
rwrist -2.98872
rhand -13.6455 17.9825
rfingers 7.12502
rthumb 12.4709 -11.6254
lclavicle -5.1684e-015 3.97569e-016
lhumerus -22.7155 -4.29949 85.3112
lradius 77.5804
lwrist 3.24948
lhand -19.863 23.0963
lfingers 7.12502
lthumb 6.47209 52.9774
rfemur -63.4302 -1.40979 24.1691
rtibia 79.7622
rfoot -25.5116 -13.3802
rtoes -4.5082
lfemur -64.6883 3.98602 -22.9766
ltibia 78.1719
lfoot -27.9184 0.917525
ltoes 0.376787
139
root 1.19852 14.7019 -18.9257 18.132 0.755664 -0.470999
lowerback 27.8608 0.163876 -0.0335817
upperback 2.78521 0.555194 2.60461
thorax -12.4057 0.339762 2.79363
lowerneck -27.2692 -5.85887 -8.86935
upperneck -2.52857 -5.56905 9.76469
head 3.89879 -2.10771 3.93967
rclavicle -4.77083e-015 5.96354e-015
rhumerus -20.4792 6.98377 -81.239
rradius 82.016
rwrist -2.96667
rhand -13.5413 17.842
rfingers 7.12502
rthumb 12.5714 -11.7598
lclavicle -4.77083e-015 5.96354e-015
lhumerus -22.0655 -4.22661 85.2293
lradius 78.3584
lwrist 3.45005
lhand -20.1313 22.1289
lfingers 7.12502
lthumb 6.21302 52.0178
rfemur -65.1271 -1.40988 24.2426
rtibia 81.0176
rfoot -25.4993 -13.6689
rtoes -5.48907
lfemur -66.279 3.97869 -23.1485
ltibia 79.3748
lfoot -28.1734 1.04033
ltoes 0.112138
140
root 1.18066 14.5606 -19.0018 18.9294 0.471037 -1.03906
lowerback 28.2969 0.464505 -0.0209357
upperback 2.86056 0.97871 2.82438
thorax -12.5732 0.53795 2.88312
lowerneck -27.2628 -5.89104 -8.93475
upperneck -3.99933 -5.51581 9.97021
head 3.44133 -2.08056 4.03451
rclavicle 5.1684e-015 -1.98785e-014
rhumerus -19.5042 6.99704 -80.8408
rradius 82.4342
rwrist -3.11599
rhand -13.3793 17.8026
rfingers 7.12502
rthumb 12.7276 -11.7895
lclavicle 5.1684e-015 -1.98785e-014
lhumerus -21.0725 -4.22689 85.2611
lradius 78.7188
lwrist 3.74742
lhand -20.092 21.0571
lfingers 7.12502
lthumb 6.25095 50.9449
rfemur -67.2923 -0.613441 24.9261
rtibia 82.27
rfoot -25.2091 -14.0965
rtoes -5.70181
lfemur -68.5944 4.5103 -22.6714
ltibia 80.771
lfoot -28.0562 0.998646
ltoes -0.347431
141
root 1.17509 14.4524 -19.0383 19.407 0.376961 -0.92813
lowerback 28.5715 0.600404 -0.281722
upperback 3.0213 1.07189 2.82394
thorax -12.5387 0.591667 2.99862
lowerneck -27.5117 -5.86862 -8.78284
upperneck -4.91155 -5.45689 9.96628
head 3.17744 -2.05445 4.02263
rclavicle 4.77083e-015 3.06128e-014
rhumerus -18.5981 7.12832 -80.5297
rradius 82.6441
rwrist -3.20016
rhand -13.8986 17.8786
rfingers 7.12502
rthumb 12.2269 -11.744
lclavicle 4.77083e-015 3.06128e-014
lhumerus -20.3143 -4.22594 85.2073
lradius 79.2048
lwrist 4.10602
lhand -20.8013 22.2544
lfingers 7.12502
lthumb 5.56617 52.1613
rfemur -68.7811 -0.526909 24.8665
rtibia 83.4835
rfoot -25.6938 -14.0138
rtoes -4.34747
lfemur -70.0255 4.56614 -22.8864
ltibia 81.9441
lfoot -28.2 0.970097
ltoes -0.307987
142
root 1.1748 14.3661 -19.0618 19.7996 0.429215 -0.592172
lowerback 28.9474 0.549798 -0.422064
upperback 3.0834 0.939398 2.63222
thorax -12.6528 0.533234 2.91255
lowerneck -27.8061 -5.75713 -8.42322
upperneck -5.59536 -5.35145 9.86405
head 2.9778 -2.01118 3.94929
rclavicle 1.43125e-014 3.18055e-014
rhumerus -17.9678 7.26328 -80.5513
rradius 82.8522
rwrist -3.35335
rhand -14.8867 18.6942
rfingers 7.12502
rthumb 11.274 -10.9828
lclavicle 1.43125e-014 3.18055e-014
lhumerus -19.7873 -4.18734 84.9453
lradius 79.738
lwrist 4.64271
lhand -22.5593 21.403
lfingers 7.12502
lthumb 3.86871 51.3476
rfemur -69.9954 -0.767895 24.5725
rtibia 84.6242
rfoot -26.298 -13.7193
rtoes -2.91487
lfemur -71.1436 4.4106 -23.3488
ltibia 82.9281
lfoot -28.4046 1.03084
ltoes -0.461905
143
root 1.17083 14.2695 -19.0913 20.2002 0.434343 -0.62354
lowerback 29.3666 0.477884 -0.316667
upperback 3.15544 0.866437 2.51994
thorax -12.7787 0.491081 2.7528
lowerneck -27.3203 -5.59884 -8.61525
upperneck -7.15 -5.04717 10.4117
head 2.43959 -1.85529 4.20799
rclavicle -3.97569e-015 1.11319e-014
rhumerus -17.3677 7.38708 -80.7189
rradius 83.164
rwrist -3.56065
rhand -15.4233 19.8175
rfingers 7.12502
rthumb 10.7564 -9.88713
lclavicle -3.97569e-015 1.11319e-014
lhumerus -19.1177 -3.95852 84.6548
lradius 79.9902
lwrist 5.15232
lhand -23.3934 18.9468
lfingers 7.12502
lthumb 3.06314 48.9045
rfemur -71.2348 -0.72418 24.6999
rtibia 85.6741
rfoot -26.4437 -13.8901
rtoes -2.96141
lfemur -72.4446 4.40495 -23.4056
ltibia 83.8717
lfoot -28.3721 1.25769
ltoes -1.56262
144
root 1.16608 14.1758 -19.1137 20.4878 0.318396 -0.76124
lowerback 29.8325 0.485349 -0.24999
upperback 2.91469 0.898418 2.59023
thorax -12.5089 0.471334 2.57721
lowerneck -28.5316 -5.6154 -8.35712
upperneck -6.9633 -5.05945 10.2845
head 2.63378 -1.83788 4.11867
rclavicle -5.1684e-015 -7.95139e-015
rhumerus -16.5098 7.67077 -80.6347
rradius 83.2463
rwrist -4.0609
rhand -15.6136 20.3396
rfingers 7.12502
rthumb 10.5729 -9.37449
lclavicle -5.1684e-015 -7.95139e-015
lhumerus -18.286 -3.73782 84.4814
lradius 80.0763
lwrist 5.61772
lhand -23.2326 18.1059
lfingers 7.12502
lthumb 3.21844 48.0614
rfemur -72.2625 -0.5402 24.9396
rtibia 86.6416
rfoot -26.514 -14.3778
rtoes -4.65343
lfemur -73.5457 4.53826 -23.3312
ltibia 84.816
lfoot -28.4185 1.3282
ltoes -2.11335
145
root 1.15983 14.0991 -19.137 20.7189 0.220422 -0.783904
lowerback 30.2072 0.533849 -0.279066
upperback 3.04212 0.944329 2.54665
thorax -12.5303 0.490352 2.52701
lowerneck -28.7542 -5.58057 -8.39216
upperneck -7.625 -4.94698 10.436
head 2.45241 -1.77362 4.19215
rclavicle -7.95139e-016 1.15295e-014
rhumerus -15.3892 7.86617 -80.4197
rradius 82.9107
rwrist -4.72069
rhand -15.7215 20.5619
rfingers 7.12502
rthumb 10.4688 -9.15745
lclavicle -7.95139e-016 1.15295e-014
lhumerus -17.4485 -3.58567 84.3858
lradius 80.2711
lwrist 5.99357
lhand -23.3045 18.7426
lfingers 7.12502
lthumb 3.14901 48.6991
rfemur -73.1404 -0.429337 25.0313
rtibia 87.4945
rfoot -26.5745 -14.6604
rtoes -5.46197
lfemur -74.4472 4.69811 -23.3886
ltibia 85.7124
lfoot -28.654 1.21221
ltoes -2.06566
146
root 1.15241 14.0211 -19.1614 20.9175 0.183462 -0.68524
lowerback 30.5564 0.597452 -0.339514
upperback 3.16678 0.992262 2.45505
thorax -12.5414 0.510964 2.44116
lowerneck -28.835 -5.56226 -8.2812
upperneck -8.40447 -4.90216 10.4966
head 2.21587 -1.75667 4.20677
rclavicle -3.57812e-015 0
rhumerus -14.3076 7.92944 -80.2122
rradius 82.476
rwrist -5.3799
rhand -16.0797 20.9956
rfingers 7.12502
rthumb 10.1232 -8.74086
lclavicle -3.57812e-015 0
lhumerus -16.5651 -3.54837 84.3479
lradius 80.3261
lwrist 6.29016
lhand -23.5946 18.4807
lfingers 7.12502
lthumb 2.86887 48.4411
rfemur -74.0205 -0.362199 24.9737
rtibia 88.3541
rfoot -26.6675 -14.7334
rtoes -5.65133
lfemur -75.2932 4.81356 -23.5712
ltibia 86.5772
lfoot -28.9484 1.11913
ltoes -2.28351
147
root 1.14527 13.9413 -19.179 20.9835 0.263613 -0.629019
lowerback 30.9874 0.603942 -0.267746
upperback 3.26283 1.01207 2.36167
thorax -12.6148 0.513062 2.29198
lowerneck -28.9807 -5.58306 -8.06789
upperneck -9.03082 -4.94459 10.5028
head 2.03748 -1.7861 4.17628
rclavicle 1.59028e-015 1.03368e-014
rhumerus -13.4807 7.96509 -80.0854
rradius 82.143
rwrist -6.00407
rhand -16.5282 21.4517
rfingers 7.12502
rthumb 9.69061 -8.30533
lclavicle 1.59028e-015 1.03368e-014
lhumerus -15.4533 -3.56771 84.2846
lradius 80.0129
lwrist 6.26086
lhand -25.222 20.3489
lfingers 7.12502
lthumb 1.29719 50.3247
rfemur -74.7154 -0.372451 25.0134
rtibia 89.1983
rfoot -26.696 -15.0325
rtoes -6.25124
lfemur -75.9143 4.84655 -23.6308
ltibia 87.3872
lfoot -29.201 0.94807
ltoes -2.191
148
root 1.1357 13.8724 -19.1926 20.9457 0.247696 -0.617466
lowerback 31.4381 0.624126 -0.261499
upperback 3.37612 1.03108 2.29831
thorax -12.6773 0.518159 2.21074
lowerneck -28.8869 -5.60828 -8.05323
upperneck -9.8256 -4.94047 10.686
head 1.78829 -1.78847 4.24307
rclavicle -9.14409e-015 -1.11319e-014
rhumerus -12.7473 8.00622 -79.9938
rradius 81.8677
rwrist -6.47782
rhand -16.9292 21.991
rfingers 7.12502
rthumb 9.30364 -7.78369
lclavicle -9.14409e-015 -1.11319e-014
lhumerus -14.0586 -3.40139 84.2385
lradius 79.48
lwrist 5.77832
lhand -29.5715 31.0487
lfingers 7.12502
lthumb -2.90366 61.0087
rfemur -75.2085 -0.259739 25.0571
rtibia 89.9591
rfoot -26.7817 -15.3077
rtoes -6.66445
lfemur -76.3612 4.98022 -23.6473
ltibia 88.0832
lfoot -29.3634 0.806682
ltoes -1.99951
149
root 1.12599 13.7917 -19.2024 21.0897 -0.0459813 -0.738952
lowerback 31.5606 0.757653 -0.344091
upperback 3.39926 1.15978 2.21535
thorax -12.7073 0.57705 2.11538
lowerneck -28.4933 -5.56951 -8.02854
upperneck -10.5951 -4.87697 10.9116
head 1.51029 -1.76912 4.32908
rclavicle 0 1.07344e-014
rhumerus -12.2302 8.02254 -80.0052
rradius 81.5856
rwrist -6.82482
rhand -17.3096 22.4736
rfingers 7.12502
rthumb 8.93655 -7.31718
lclavicle 0 1.07344e-014
lhumerus -12.9714 -3.08935 84.2399
lradius 79.181
lwrist 4.93316
lhand -25.2923 19.9917
lfingers 7.12502
lthumb 1.22925 49.9679
rfemur -75.9603 0.20069 25.1329
rtibia 90.6803
rfoot -26.7886 -15.474
rtoes -6.50356
lfemur -77.2071 5.39086 -23.6861
ltibia 88.8412
lfoot -29.4115 0.803952
ltoes -2.52663
150
root 1.12236 13.7124 -19.213 21.4625 -0.441307 -0.843605
lowerback 31.3993 0.910315 -0.435432
upperback 3.30521 1.30412 2.08492
thorax -12.749 0.643981 1.9695
lowerneck -28.0471 -5.50889 -8.0345
upperneck -11.2691 -4.78114 11.2012
head 1.25768 -1.73156 4.44315
rclavicle 1.59028e-015 2.38542e-015
rhumerus -11.8296 8.08828 -79.9946
rradius 81.2817
rwrist -7.21413
rhand -17.0345 21.9415
rfingers 7.12502
rthumb 9.20208 -7.8377
lclavicle 1.59028e-015 2.38542e-015
lhumerus -12.1915 -2.79126 84.2578
lradius 79.1689
lwrist 3.86703
lhand -23.0493 14.4313
lfingers 7.12502
lthumb 3.3955 44.384
rfemur -76.9934 0.692698 25.1291
rtibia 91.3152
rfoot -26.6594 -15.5126
rtoes -6.17774
lfemur -78.294 5.80704 -23.7927
ltibia 89.6382
lfoot -29.4822 0.682573
ltoes -2.62929
151
root 1.11522 13.6692 -19.2197 21.4633 -0.507737 -0.833035
lowerback 31.4913 0.94348 -0.41533
upperback 3.36125 1.33702 1.98191
thorax -12.7212 0.65472 1.8341
lowerneck -28.0545 -5.52818 -8.0579
upperneck -11.6612 -4.76807 11.4681
head 1.15133 -1.71912 4.53974
rclavicle -4.37326e-015 1.59028e-015
rhumerus -11.428 7.95388 -79.8985
rradius 81.2124
rwrist -7.40899
rhand -18.0253 23.7379
rfingers 7.12502
rthumb 8.24591 -6.08118
lclavicle -4.37326e-015 1.59028e-015
lhumerus -11.1661 -2.54588 84.3862
lradius 79.452
lwrist 3.01731
lhand -23.0367 14.6155
lfingers 7.12502
lthumb 3.40762 44.568
rfemur -77.3332 0.83424 25.0913
rtibia 91.7877
rfoot -26.834 -15.4383
rtoes -5.13048
lfemur -78.658 5.97691 -23.8566
ltibia 90.1957
lfoot -29.607 0.49158
ltoes -2.55292
